<svg width="240" height="240" viewBox="0 0 240 240" fill="none" xmlns="http://www.w3.org/2000/svg">
<rect width="240" height="240" rx="120" fill="#FFF8F8"/>
<g clip-path="url(#clip0_1616_8857)">
<path d="M112.008 110.689C112.008 112.181 111.415 113.612 110.36 114.666C109.305 115.721 107.875 116.314 106.383 116.314C104.891 116.314 103.46 115.721 102.405 114.666C101.35 113.612 100.758 112.181 100.758 110.689C100.758 109.197 101.35 107.766 102.405 106.711C103.46 105.657 104.891 105.064 106.383 105.064C107.875 105.064 109.305 105.657 110.36 106.711C111.415 107.766 112.008 109.197 112.008 110.689Z" fill="#E51C23"/>
<path d="M97.0078 93.814C95.0187 93.814 93.111 94.6041 91.7045 96.0107C90.298 97.4172 89.5078 99.3248 89.5078 101.314V138.814C89.5078 140.803 90.298 142.711 91.7045 144.117C93.111 145.524 95.0187 146.314 97.0078 146.314H142.008C143.997 146.314 145.905 145.524 147.311 144.117C148.718 142.711 149.508 140.803 149.508 138.814V101.314C149.508 99.3248 148.718 97.4172 147.311 96.0107C145.905 94.6041 143.997 93.814 142.008 93.814H97.0078ZM142.008 97.564C143.002 97.564 143.956 97.9591 144.659 98.6623C145.363 99.3656 145.758 100.319 145.758 101.314V125.689L131.594 118.388C131.242 118.212 130.844 118.15 130.456 118.213C130.068 118.276 129.709 118.459 129.43 118.736L115.518 132.649L105.543 126.004C105.183 125.764 104.751 125.656 104.32 125.699C103.889 125.741 103.487 125.931 103.18 126.236L93.2578 135.064V101.314C93.2578 100.319 93.6529 99.3656 94.3562 98.6623C95.0594 97.9591 96.0133 97.564 97.0078 97.564H142.008Z" fill="#E51C23"/>
</g>
<defs>
<clipPath id="clip0_1616_8857">
<rect width="60" height="60" fill="white" transform="translate(89.5 90.064)"/>
</clipPath>
</defs>
</svg>
